<svg width="64" height="64" viewBox="0 0 64 64" fill="none" xmlns="http://www.w3.org/2000/svg">
<path d="M53.2242 27.9645C53.2242 30.1525 51.6724 31.9835 49.6086 32.4025C49.3138 32.4646 49.0035 32.4956 48.6931 32.4956H14.3069C13.9965 32.4956 13.6863 32.4646 13.3914 32.4025C11.3276 31.9835 9.77588 30.1525 9.77588 27.9645C9.77588 25.5594 11.6535 23.6042 14.0276 23.4646C13.6086 22.6267 13.3914 21.7111 13.3914 20.7335C13.3914 17.2421 16.2465 14.3869 19.7379 14.3869C20.1414 14.3869 20.5448 14.4335 20.9328 14.4956C21.6311 12.3232 23.6638 10.7715 26.069 10.7715C29.0793 10.7715 31.5 13.1922 31.5 16.2025C31.5 13.1922 33.9207 10.7715 36.9311 10.7715C39.3362 10.7715 41.369 12.3232 42.0673 14.4956C42.4552 14.4335 42.8587 14.3869 43.2621 14.3869C46.7535 14.3869 49.6086 17.2421 49.6086 20.7335C49.6086 21.7111 49.3914 22.6267 48.9724 23.4646C51.3465 23.6042 53.2242 25.5594 53.2242 27.9645Z" fill="#EE2C3C"/>
<path d="M22.1897 44.9141H12.8794V51.121H22.1897V44.9141Z" fill="#F2F2F2"/>
<path d="M50.12 44.9141H40.8097V51.121H50.12V44.9141Z" fill="#F2F2F2"/>
<path d="M50.039 22.8713C50.2594 22.1892 50.3798 21.4753 50.3798 20.7333C50.3798 16.8115 47.1885 13.6202 43.2667 13.6202C43.0261 13.6202 42.802 13.662 42.5691 13.6841C41.5889 11.4624 39.4059 10 36.931 10C34.5783 10 32.5523 11.3303 31.4999 13.2641C30.4473 11.3303 28.4212 10 26.069 10C23.5842 10 21.3931 11.4747 20.4293 13.6839C20.1969 13.6619 19.9734 13.6202 19.7325 13.6202C15.8115 13.6202 12.6209 16.8115 12.6209 20.7333C12.6209 21.4772 12.741 22.1909 12.9609 22.8713C10.6886 23.4699 9 25.5184 9 27.9691C9 30.4815 10.7821 32.6682 13.2316 33.1668C13.5749 33.2395 13.937 33.2759 14.3068 33.2759H28.3966C28.8254 33.2759 29.1724 32.9288 29.1724 32.5C29.1724 32.0712 28.8254 31.7241 28.3966 31.7241H14.3068C14.0439 31.7241 13.79 31.6984 13.5461 31.6469C11.811 31.2938 10.5517 29.7481 10.5517 27.9691C10.5517 25.9067 12.236 24.2292 14.3068 24.2292C15.1342 24.2292 15.9108 24.4868 16.5548 24.9717C16.8935 25.2308 17.3829 25.1626 17.6413 24.8217C17.8997 24.4792 17.8323 23.9928 17.4898 23.7352C16.6458 23.0961 15.64 22.7502 14.5726 22.6984C14.328 22.0801 14.1727 21.4286 14.1727 20.7333C14.1727 17.6662 16.6669 15.1719 19.7325 15.1719C19.8069 15.1719 19.8726 15.1887 19.9459 15.1913C19.8912 15.516 19.8621 15.8547 19.8621 16.2069C19.8621 16.6357 20.2091 16.9828 20.6379 16.9828C21.0668 16.9828 21.4138 16.6357 21.4138 16.2069C21.4138 15.678 21.4941 15.1977 21.6653 14.7446C22.2859 12.8352 24.0558 11.5517 26.069 11.5517C28.636 11.5517 30.7241 13.6399 30.7241 16.2069C30.7241 18.7739 28.636 20.8621 26.069 20.8621C25.6401 20.8621 25.2931 21.2091 25.2931 21.6379C25.2931 22.0668 25.6401 22.4138 26.069 22.4138C28.4212 22.4138 30.4473 21.0835 31.4999 19.1497C32.5523 21.0835 34.5783 22.4138 36.931 22.4138C37.3599 22.4138 37.7069 22.0668 37.7069 21.6379C37.7069 21.2091 37.3599 20.8621 36.931 20.8621C34.364 20.8621 32.2759 18.7739 32.2759 16.2069C32.2759 13.6399 34.364 11.5517 36.931 11.5517C38.9449 11.5517 40.7134 12.8352 41.3468 14.7794C41.5059 15.1992 41.5862 15.6796 41.5862 16.2069C41.5862 16.6357 41.9332 16.9828 42.3621 16.9828C42.7909 16.9828 43.1379 16.6357 43.1379 16.2069C43.1379 15.8532 43.1091 15.513 43.0554 15.1911C43.1279 15.1886 43.1931 15.1719 43.2667 15.1719C46.3338 15.1719 48.8281 17.6662 48.8281 20.7333C48.8281 21.4261 48.6725 22.0779 48.4281 22.6984C47.3613 22.75 46.3558 23.0959 45.511 23.7337C45.1685 23.9928 45.1003 24.4792 45.3579 24.8217C45.6186 25.1642 46.102 25.2278 46.446 24.9732C47.09 24.4868 47.8674 24.2292 48.6932 24.2292C50.7632 24.2292 52.4483 25.9067 52.4483 27.9691C52.4483 29.7481 51.189 31.2938 49.4479 31.6484C49.21 31.6984 48.9569 31.7241 48.6932 31.7241H34.6034C34.1746 31.7241 33.8276 32.0712 33.8276 32.5C33.8276 32.9288 34.1746 33.2759 34.6034 33.2759H48.6932C49.0645 33.2759 49.4267 33.2395 49.7631 33.1683C52.2179 32.6682 54 30.4815 54 27.9691C54 25.5184 52.3114 23.4698 50.039 22.8713Z" fill="black"/>
<path d="M18.8279 29.6543C21.2517 29.6543 23.2239 27.6813 23.2239 25.2567C23.2239 24.8279 22.8769 24.4808 22.4481 24.4808C22.0192 24.4808 21.6722 24.8279 21.6722 25.2567C21.6722 26.8266 20.3963 28.1025 18.8279 28.1025C18.399 28.1025 18.052 28.4496 18.052 28.8784C18.052 29.3072 18.399 29.6543 18.8279 29.6543ZM40.5513 24.4808C40.1224 24.4808 39.7754 24.8279 39.7754 25.2567C39.7754 27.6813 41.7484 29.6543 44.173 29.6543C44.6018 29.6543 44.9488 29.3072 44.9488 28.8784C44.9488 28.4496 44.6018 28.1025 44.173 28.1025C42.603 28.1025 41.3271 26.8266 41.3271 25.2567C41.3271 24.8279 40.9801 24.4808 40.5513 24.4808ZM18.8279 20.6015C19.3984 20.6015 19.8621 21.0652 19.8621 21.6365C19.8621 22.0654 20.2091 22.4124 20.638 22.4124C21.0668 22.4124 21.4138 22.0654 21.4138 21.6365C21.4138 20.2106 20.2538 19.0498 18.8279 19.0498C18.399 19.0498 18.052 19.3968 18.052 19.8257C18.052 20.2545 18.399 20.6015 18.8279 20.6015ZM43.138 21.6365C43.138 21.0652 43.6017 20.6015 44.173 20.6015C44.6018 20.6015 44.9488 20.2545 44.9488 19.8257C44.9488 19.3968 44.6018 19.0498 44.173 19.0498C42.747 19.0498 41.5862 20.2106 41.5862 21.6365C41.5862 22.0654 41.9333 22.4124 42.3621 22.4124C42.7909 22.4124 43.138 22.0654 43.138 21.6365ZM27.8791 26.2917C27.4502 26.2917 27.1032 26.6387 27.1032 27.0676C27.1032 27.4964 27.4502 27.8434 27.8791 27.8434C28.4496 27.8434 28.9141 28.3071 28.9141 28.8784C28.9141 29.3072 29.2611 29.6543 29.6899 29.6543C30.1188 29.6543 30.4658 29.3072 30.4658 28.8784C30.4658 27.4525 29.305 26.2917 27.8791 26.2917ZM34.0867 28.8784C34.0867 28.3071 34.5504 27.8434 35.1202 27.8434C35.5491 27.8434 35.8961 27.4964 35.8961 27.0676C35.8961 26.6387 35.5491 26.2917 35.1202 26.2917C33.6943 26.2917 32.535 27.4525 32.535 28.8784C32.535 29.3072 32.882 29.6543 33.3109 29.6543C33.7397 29.6543 34.0867 29.3072 34.0867 28.8784ZM23.7414 50.3434H22.9656V44.9124C22.9656 44.4835 22.6185 44.1365 22.1897 44.1365H12.8793C12.4505 44.1365 12.1035 44.4835 12.1035 44.9124V50.3434H11.3276C10.8988 50.3434 10.5518 50.6904 10.5518 51.1193C10.5518 53.259 12.2921 54.9986 14.4311 54.9986H20.638C22.7769 54.9986 24.5173 53.259 24.5173 51.1193C24.5173 50.6904 24.1703 50.3434 23.7414 50.3434ZM13.6552 45.6882H21.4138V50.3434H13.6552V45.6882ZM20.638 53.4469H14.4311C13.4196 53.4469 12.5566 52.7983 12.2361 51.8951H22.833C22.5125 52.7983 21.6495 53.4469 20.638 53.4469ZM51.6724 50.3434H50.8966V44.9124C50.8966 44.4835 50.5496 44.1365 50.1207 44.1365H40.8104C40.3815 44.1365 40.0345 44.4835 40.0345 44.9124V50.3434H39.2587C38.8298 50.3434 38.4828 50.6904 38.4828 51.1193C38.4828 53.259 40.2224 54.9986 42.3621 54.9986H48.569C50.7087 54.9986 52.4483 53.259 52.4483 51.1193C52.4483 50.6904 52.1013 50.3434 51.6724 50.3434ZM41.5862 45.6882H49.3449V50.3434H41.5862V45.6882ZM48.569 53.4469H42.3621C41.3498 53.4469 40.4876 52.7983 40.1679 51.8951H50.7632C50.4435 52.7983 49.5813 53.4469 48.569 53.4469ZM44.6897 41.8089C44.6897 42.2378 45.0367 42.5848 45.4656 42.5848C45.8944 42.5848 46.2414 42.2378 46.2414 41.8089V38.7055C46.2414 38.2766 45.8944 37.9296 45.4656 37.9296H32.2759V35.602C32.2759 35.1732 31.9289 34.8262 31.5 34.8262C31.0712 34.8262 30.7242 35.1732 30.7242 35.602V37.9296H17.5345C17.1057 37.9296 16.7587 38.2766 16.7587 38.7055V41.8089C16.7587 42.2378 17.1057 42.5848 17.5345 42.5848C17.9634 42.5848 18.3104 42.2378 18.3104 41.8089V39.4813H44.6897V41.8089Z" fill="black"/>
<path d="M31.5002 33.2793C31.9287 33.2793 32.2761 32.9319 32.2761 32.5034C32.2761 32.0749 31.9287 31.7275 31.5002 31.7275C31.0717 31.7275 30.7244 32.0749 30.7244 32.5034C30.7244 32.9319 31.0717 33.2793 31.5002 33.2793Z" fill="black"/>
</svg>
